<svg width="840" height="840" viewBox="0 0 840 840" fill="none" xmlns="http://www.w3.org/2000/svg">
<mask id="mask0_962_5" style="mask-type:alpha" maskUnits="userSpaceOnUse" x="30" y="30" width="780" height="780">
<circle cx="420" cy="420" r="390" fill="#D9D9D9"/>
</mask>
<g mask="url(#mask0_962_5)">
<rect width="840" height="840" fill="url(#paint0_linear_962_5)"/>
<g filter="url(#filter0_d_962_5)">
<path d="M123.08 475.8C112.38 475.8 104.18 472.95 98.4797 467.25C92.7797 461.55 89.9297 453.35 89.9297 442.65C89.9297 429.65 93.5797 418.7 100.88 409.8C108.18 400.8 117.88 396.3 129.98 396.3C136.88 396.3 142.48 397.7 146.78 400.5C151.08 403.2 153.23 407.25 153.23 412.65C153.23 416.15 151.83 419.3 149.03 422.1C146.23 424.8 143.08 426.15 139.58 426.15C138.78 426.15 137.78 426.05 136.58 425.85C136.88 424.55 137.03 423.4 137.03 422.4C137.03 418.8 136.08 415.75 134.18 413.25C132.28 410.75 129.13 409.5 124.73 409.5C120.33 409.5 116.23 411.3 112.43 414.9C109.73 421.9 108.38 430.65 108.38 441.15C108.38 455.45 113.78 462.6 124.58 462.6C130.38 462.6 134.68 460.75 137.48 457.05C140.38 453.25 141.83 449 141.83 444.3C145.23 444.3 148.18 445.15 150.68 446.85C153.18 448.55 154.43 450.9 154.43 453.9C154.43 460.4 151.08 465.7 144.38 469.8C137.78 473.8 130.68 475.8 123.08 475.8ZM169.294 363.3C172.494 362.1 175.794 361.5 179.194 361.5C182.594 361.5 185.394 362.65 187.594 364.95C189.894 367.15 191.044 370.2 191.044 374.1C191.044 377.9 190.494 385.6 189.394 397.2C188.394 408.7 187.894 417.75 187.894 424.35C187.894 440.65 189.044 456.6 191.344 472.2C188.144 473.4 184.744 474 181.144 474C173.444 474 169.594 470.25 169.594 462.75C169.594 459.15 170.144 452.1 171.244 441.6C172.344 431 172.894 422.5 172.894 416.1C172.894 394.8 171.694 377.2 169.294 363.3ZM276.477 403.35C273.777 414.85 272.427 426.4 272.427 438C272.427 449.5 273.727 460.9 276.327 472.2C272.727 473.4 269.027 474 265.227 474C261.427 474 258.777 472.9 257.277 470.7C255.777 468.4 255.027 465.15 255.027 460.95C255.027 456.65 255.677 450.8 256.977 443.4C249.877 458.6 243.027 468.2 236.427 472.2C233.427 474 230.327 474.9 227.127 474.9C219.527 474.9 213.627 472.1 209.427 466.5C205.227 460.8 203.127 453.75 203.127 445.35C203.127 432.55 206.677 421.35 213.777 411.75C220.877 402.05 230.077 397.2 241.377 397.2C252.777 397.2 264.477 399.25 276.477 403.35ZM256.827 412.35C251.527 410.75 247.027 409.95 243.327 409.95C235.827 409.95 230.227 411.6 226.527 414.9C223.127 423.3 221.427 431.85 221.427 440.55C221.427 445.15 222.127 449.8 223.527 454.5C225.027 459.2 227.277 461.55 230.277 461.55C233.777 461.55 238.277 456.4 243.777 446.1C249.277 435.8 253.627 424.55 256.827 412.35ZM404.265 413.4L402.765 445.5C402.765 455.2 404.165 464.4 406.965 473.1C404.165 474.3 400.965 474.9 397.365 474.9C388.865 474.9 384.615 470.15 384.615 460.65C384.615 456.35 385.165 449.15 386.265 439.05C387.365 428.85 387.915 422.45 387.915 419.85C387.915 414.85 385.865 412.35 381.765 412.35C377.265 412.35 371.865 416.95 365.565 426.15C359.365 435.35 356.265 442.55 356.265 447.75C356.765 455.65 358.165 463.5 360.465 471.3C356.665 472.5 353.465 473.1 350.865 473.1C342.365 473.1 338.115 468.35 338.115 458.85C338.115 454.85 338.665 448.15 339.765 438.75C340.865 429.35 341.415 423.45 341.415 421.05C341.415 416.05 339.165 413.55 334.665 413.55C331.565 413.55 328.015 415.85 324.015 420.45C320.015 425.05 316.615 430.15 313.815 435.75C311.115 441.25 309.665 445.65 309.465 448.95C309.965 457.55 310.965 465.3 312.465 472.2C309.265 473.4 305.915 474 302.415 474C299.015 474 296.215 473.2 294.015 471.6C291.915 469.9 290.865 467.6 290.865 464.7C290.865 461.7 291.315 456.4 292.215 448.8C293.115 441.1 293.565 433.5 293.565 426C293.565 418.4 292.415 409.7 290.115 399.9C293.315 398.7 296.715 398.1 300.315 398.1C303.915 398.1 306.815 399.15 309.015 401.25C311.315 403.35 312.465 406.15 312.465 409.65C312.465 411.45 312.115 415.85 311.415 422.85C315.115 416.25 319.815 410.55 325.515 405.75C331.215 400.85 336.915 398.4 342.615 398.4C352.715 398.4 357.765 403.8 357.765 414.6C357.765 417.3 357.615 420.3 357.315 423.6C361.015 416.6 365.765 410.45 371.565 405.15C377.465 399.85 383.315 397.2 389.115 397.2C399.215 397.2 404.265 402.6 404.265 413.4ZM441.584 459.3C445.684 460.8 450.434 461.55 455.834 461.55C461.234 461.55 465.984 460.5 470.084 458.4C474.984 450 477.434 439.95 477.434 428.25C477.434 416.45 475.384 410.55 471.284 410.55C466.184 410.55 460.434 415.7 454.034 426C447.734 436.3 443.584 447.4 441.584 459.3ZM441.584 428.55C452.184 407.65 463.934 397.2 476.834 397.2C483.634 397.2 488.484 400 491.384 405.6C494.384 411.1 495.884 418.1 495.884 426.6C495.884 438.8 492.284 449.9 485.084 459.9C477.884 469.9 468.834 474.9 457.934 474.9C451.734 474.9 446.084 473.9 440.984 471.9C441.184 485.6 442.034 498.15 443.534 509.55C440.334 510.75 437.034 511.35 433.634 511.35C430.234 511.35 427.434 510.2 425.234 507.9C423.034 505.7 421.934 502.3 421.934 497.7C421.934 493.1 422.534 485.25 423.734 474.15C424.934 463.05 425.534 454.35 425.534 448.05C425.534 427.25 424.434 411.2 422.234 399.9C425.434 398.7 428.784 398.1 432.284 398.1C435.884 398.1 438.634 399.15 440.534 401.25C442.534 403.25 443.534 406.45 443.534 410.85C443.534 415.15 442.884 421.05 441.584 428.55ZM532.97 351.3C542.07 351.3 546.62 354.6 546.62 361.2C546.62 363.1 545.87 365.35 544.37 367.95C542.87 370.45 541.07 373.3 538.97 376.5C536.87 379.6 534.72 383.2 532.52 387.3C530.42 391.3 528.62 396.6 527.12 403.2C525.62 409.7 524.87 416.8 524.87 424.5C524.87 447.6 531.77 467.6 545.57 484.5C543.37 487.7 540.82 489.3 537.92 489.3C533.62 489.3 529.17 486.1 524.57 479.7C520.07 473.3 516.27 464.8 513.17 454.2C510.17 443.5 508.67 432.6 508.67 421.5C508.67 394.4 516.77 371 532.97 351.3ZM563.312 399.45C566.512 398.55 569.712 398.1 572.912 398.1C576.212 398.1 579.012 399.1 581.312 401.1C583.612 403.1 584.762 405.7 584.762 408.9C584.762 412 584.212 417.45 583.112 425.25C582.112 432.95 581.612 438.95 581.612 443.25C581.612 454.45 582.662 464.1 584.762 472.2C581.662 473.4 578.312 474 574.712 474C571.112 474 568.262 473.2 566.162 471.6C564.062 469.9 563.012 467.5 563.012 464.4C563.012 461.2 563.612 456 564.812 448.8C566.012 441.6 566.612 435.65 566.612 430.95C566.612 418.45 565.512 407.95 563.312 399.45ZM565.262 365.55C568.762 363.95 572.212 363.15 575.612 363.15C579.012 363.15 581.512 364.05 583.112 365.85C584.812 367.55 585.662 370.1 585.662 373.5C585.662 376.9 584.512 379.9 582.212 382.5C580.012 385.1 577.112 386.4 573.512 386.4C566.112 386.4 562.412 382.55 562.412 374.85C562.412 371.45 563.362 368.35 565.262 365.55ZM606.795 376.05C609.995 374.45 613.245 373.65 616.545 373.65C619.845 373.65 622.495 374.7 624.495 376.8C626.595 378.9 627.645 382 627.645 386.1C627.645 390.2 627.395 394.85 626.895 400.05C634.395 400.05 641.545 399 648.345 396.9C649.545 398.9 650.145 401.25 650.145 403.95C650.145 406.55 648.945 408.7 646.545 410.4C644.245 412 641.895 412.8 639.495 412.8C637.095 412.8 634.395 412.5 631.395 411.9C628.395 411.3 626.445 410.95 625.545 410.85C625.445 411.75 625.145 413.55 624.645 416.25C624.245 418.95 623.895 421.3 623.595 423.3C622.795 428.8 622.395 434.7 622.395 441C622.395 454.7 626.845 461.55 635.745 461.55C639.045 461.55 642.845 460.4 647.145 458.1C648.445 460 649.095 462.45 649.095 465.45C649.095 468.45 647.445 470.8 644.145 472.5C640.945 474.1 637.095 474.9 632.595 474.9C614.995 474.9 606.195 464.9 606.195 444.9C606.195 442 606.595 436.75 607.395 429.15C608.295 421.55 608.745 415.4 608.745 410.7C603.945 411 600.095 411.85 597.195 413.25C595.995 411.45 595.395 409.4 595.395 407.1C595.395 404.7 596.245 402.75 597.945 401.25C599.645 399.65 601.745 398.85 604.245 398.85C606.745 398.85 608.395 398.9 609.195 399C609.295 398.2 609.345 397.15 609.345 395.85C609.345 388.35 608.495 381.75 606.795 376.05ZM670.024 456C673.224 454.5 676.474 453.75 679.774 453.75C685.774 453.75 688.774 456.85 688.774 463.05C688.774 466.35 687.624 469.15 685.324 471.45C683.124 473.75 680.424 474.9 677.224 474.9C674.124 474.9 671.724 474 670.024 472.2C668.424 470.3 667.624 467.8 667.624 464.7C667.624 461.6 668.424 458.7 670.024 456ZM663.574 364.8C667.174 362.6 671.024 361.5 675.124 361.5C679.324 361.5 682.524 362.45 684.724 364.35C687.024 366.15 688.174 368.7 688.174 372C688.174 375.3 687.474 382.9 686.074 394.8C684.774 406.7 684.124 415.8 684.124 422.1C684.124 428.4 684.474 433.7 685.174 438C683.474 439.2 681.424 439.8 679.024 439.8C676.624 439.8 674.674 439.25 673.174 438.15C671.774 436.95 671.074 435.3 671.074 433.2C671.074 421.2 670.974 412 670.774 405.6C670.674 399.1 670.024 391.7 668.824 383.4C667.624 375.1 665.874 368.9 663.574 364.8ZM721.978 489.3C712.878 489.3 708.328 486 708.328 479.4C708.328 477.5 709.078 475.3 710.578 472.8C712.078 470.2 713.878 467.35 715.978 464.25C718.078 461.05 720.178 457.45 722.278 453.45C724.478 449.35 726.328 444.05 727.828 437.55C729.328 430.95 730.078 423.8 730.078 416.1C730.078 393 723.178 373 709.378 356.1C711.578 352.9 714.128 351.3 717.028 351.3C721.328 351.3 725.728 354.5 730.228 360.9C734.828 367.3 738.628 375.85 741.628 386.55C744.728 397.15 746.278 408 746.278 419.1C746.278 446.2 738.178 469.6 721.978 489.3Z" fill="url(#paint1_linear_962_5)"/>
</g>
</g>
<defs>
<filter id="filter0_d_962_5" x="85.9297" y="351.3" width="664.348" height="168.05" filterUnits="userSpaceOnUse" color-interpolation-filters="sRGB">
<feFlood flood-opacity="0" result="BackgroundImageFix"/>
<feColorMatrix in="SourceAlpha" type="matrix" values="0 0 0 0 0 0 0 0 0 0 0 0 0 0 0 0 0 0 127 0" result="hardAlpha"/>
<feOffset dy="4"/>
<feGaussianBlur stdDeviation="2"/>
<feComposite in2="hardAlpha" operator="out"/>
<feColorMatrix type="matrix" values="0 0 0 0 0 0 0 0 0 0 0 0 0 0 0 0 0 0 0.5 0"/>
<feBlend mode="normal" in2="BackgroundImageFix" result="effect1_dropShadow_962_5"/>
<feBlend mode="normal" in="SourceGraphic" in2="effect1_dropShadow_962_5" result="shape"/>
</filter>
<linearGradient id="paint0_linear_962_5" x1="420" y1="0" x2="420" y2="840" gradientUnits="userSpaceOnUse">
<stop stop-color="#3EE056"/>
<stop offset="0.513841" stop-color="#2E7B81"/>
<stop offset="1" stop-color="#1E1BA9"/>
</linearGradient>
<linearGradient id="paint1_linear_962_5" x1="85" y1="420" x2="755" y2="420" gradientUnits="userSpaceOnUse">
<stop stop-color="#3EE056"/>
<stop offset="1" stop-color="#3EE056"/>
</linearGradient>
</defs>
</svg>
